<svg id="Capa_1" enable-background="new 0 0 512.048 512.048" height="512" viewBox="0 0 512.048 512.048" width="512" xmlns="http://www.w3.org/2000/svg"><g><g><g><g><g><path d="m324.365 437.474v-41.071h-136.682v41.071c.567 34.192-18.872 67.074-18.872 67.074h174.426s-19.439-32.881-18.872-67.074z" fill="#acacac"/></g><g><path d="m187.681 404.505h136.686v20.313h-136.686z" fill="#9c9c9c"/></g><g><path d="m495.762 404.509h-479.476c-6.807 0-12.325-5.518-12.325-12.325v-294.769c0-6.807 5.518-12.325 12.325-12.325h479.476c6.807 0 12.325 5.518 12.325 12.325v294.77c0 6.806-5.518 12.324-12.325 12.324z" fill="#acacac"/></g><g><path d="m508.087 97.417v294.771c0 6.805-5.515 12.32-12.33 12.32h-20.303c6.805 0 12.32-5.515 12.32-12.32v-294.771c0-6.805-5.515-12.33-12.32-12.33h20.303c6.815 0 12.33 5.525 12.33 12.33z" fill="#9c9c9c"/></g><g><path d="m43.197 345.661v-213.012c0-6.247 4.823-11.311 10.773-11.311h404.108c5.95 0 10.773 5.064 10.773 11.311v213.012z" fill="#c4e2ff"/></g><g><path d="m468.853 132.649v213.011h-20.313v-213.011c0-6.246-4.824-11.314-10.776-11.314h20.313c5.951 0 10.776 5.068 10.776 11.314z" fill="#a5d5f9"/></g></g><g><path d="m371.949 512.048h-231.85c-4.142 0-7.5-3.358-7.5-7.5s3.358-7.5 7.5-7.5h231.85c4.142 0 7.5 3.358 7.5 7.5s-3.358 7.5-7.5 7.5z" fill="#5a5a5a"/></g></g><g><g><path d="m422.427 345.661h-332.806v-337.383c0-4.57 3.705-8.274 8.274-8.274h316.257c4.57 0 8.274 3.705 8.274 8.274v337.383z" fill="#eaf6ff"/></g><g><path d="m422.427 8.278v337.387h-20.313v-337.387c0-4.57-3.707-8.278-8.278-8.278h20.313c4.571 0 8.278 3.707 8.278 8.278z" fill="#d8ecfe"/></g><g><g><path d="m215.778 54.4c-9.8 0-17.744 7.944-17.744 17.744v69.52c0 2.539 0 7.264-9.297 11.946-2.574 1.296-5.41 1.926-8.668 1.926-.011 0-.023 0-.033 0-3.464-.004-6.444-.835-9.114-2.541-7.097-4.534-7.675-7.781-7.675-11.258v-69.593c0-9.8-7.944-17.744-17.744-17.744s-17.744 7.944-17.744 17.744v69.594c0 17.116 8.094 30.966 24.057 41.164 8.415 5.376 17.893 8.11 28.173 8.124h.08c8.809 0 17.096-1.924 24.632-5.719 18.587-9.36 28.824-24.86 28.824-43.642v-69.52c-.003-9.801-7.947-17.745-17.747-17.745z" fill="#97d729"/></g><g><path d="m380.68 163.267-33.526-44.176 27.88-36.975c5.9-7.825 4.34-18.951-3.485-24.851-7.827-5.903-18.952-4.34-24.851 3.485l-21.84 28.964-22.015-29.008c-5.925-7.806-17.056-9.331-24.862-3.408-7.807 5.925-9.332 17.056-3.408 24.862l28.081 37.001-31.941 42.361c-5.9 7.825-4.34 18.951 3.485 24.851 3.199 2.413 6.949 3.577 10.67 3.577 5.379 0 10.694-2.436 14.182-7.062l25.9-34.349 27.46 36.183c3.491 4.599 8.788 7.018 14.148 7.018 3.738 0 7.507-1.177 10.714-3.61 7.807-5.926 9.333-17.057 3.408-24.863z" fill="#97d729"/></g></g><g><g><path d="m233.518 72.141v69.521c0 18.789-10.228 34.288-28.824 43.642-7.526 3.798-15.814 5.718-24.629 5.718h-.081c-3.24-.01-6.399-.274-9.466-.812 5.22-.904 10.197-2.539 14.879-4.906 18.596-9.354 28.824-24.853 28.824-43.642v-69.521c0-6.246-3.22-11.731-8.095-14.889 2.773-1.808 6.084-2.854 9.649-2.854 9.8 0 17.743 7.942 17.743 17.743z" fill="#8bc727"/></g><g><path d="m377.272 188.128c-3.209 2.438-6.977 3.616-10.715 3.616-3.392 0-6.764-.975-9.659-2.864.366-.234.721-.487 1.077-.752 7.81-5.921 9.334-17.053 3.413-24.863l-30.757-40.521c-1.638-2.159-1.643-5.143-.012-7.307l25.122-33.322c5.901-7.82 4.337-18.952-3.484-24.853-.345-.254-.691-.498-1.046-.721 6.074-3.941 14.219-3.9 20.343.721 7.82 5.901 9.385 17.032 3.484 24.853l-27.879 36.98 33.526 44.17c5.921 7.81 4.397 18.942-3.413 24.863z" fill="#8bc727"/></g></g><g><g><path d="m384.291 237.68h-256.533c-4.142 0-7.5-3.358-7.5-7.5s3.358-7.5 7.5-7.5h256.533c4.142 0 7.5 3.358 7.5 7.5s-3.358 7.5-7.5 7.5z" fill="#96cced"/></g><g><path d="m384.291 268.579h-256.533c-4.142 0-7.5-3.358-7.5-7.5s3.358-7.5 7.5-7.5h256.533c4.142 0 7.5 3.358 7.5 7.5s-3.358 7.5-7.5 7.5z" fill="#96cced"/></g><g><path d="m384.291 299.478h-256.533c-4.142 0-7.5-3.358-7.5-7.5s3.358-7.5 7.5-7.5h256.533c4.142 0 7.5 3.358 7.5 7.5s-3.358 7.5-7.5 7.5z" fill="#96cced"/></g></g></g></g><g><path d="m508.087 345.661v46.527c0 6.805-5.515 12.32-12.33 12.32h-479.466c-6.815 0-12.33-5.515-12.33-12.32v-46.527z" fill="#5a5a5a"/></g><g><path d="m508.087 345.665v46.527c0 6.805-5.515 12.32-12.33 12.32h-20.303c6.805 0 12.32-5.515 12.32-12.32v-46.527z" fill="#444"/></g><g><path d="m271.259 382.584h-30.47c-4.142 0-7.5-3.358-7.5-7.5s3.358-7.5 7.5-7.5h30.47c4.142 0 7.5 3.358 7.5 7.5s-3.358 7.5-7.5 7.5z" fill="#333"/></g></g></svg>