<svg id="Capa_1" enable-background="new 0 0 512 512" height="512" viewBox="0 0 512 512" width="512" xmlns="http://www.w3.org/2000/svg"><g><g><g><path d="m1.307 403.798c-.837-2.206-1.307-4.594-1.307-7.093v-263.789c0-3.21.756-6.244 2.101-8.932l413.731.006c1.344 2.688 2.113 5.716 2.113 8.926v263.789c0 2.499-.47 4.887-1.307 7.092z" fill="#ffd064"/></g><g><path d="m385.128 123.984v239.861c0 11.069-8.973 20.042-20.042 20.042h-365.086v12.775c0 2.513.463 4.918 1.307 7.135h415.331c.845-2.216 1.307-4.622 1.307-7.135v-263.703c0-3.224-.761-6.27-2.113-8.968z" fill="#ffc250"/></g><g><path d="m208.972 181.63-207.664 222.167c2.873 7.551 10.176 12.908 18.735 12.908h227.412c1.79 0 3.444.955 4.339 2.505l35.326 61.187c3.857 6.681 13.5 6.681 17.357 0l35.326-61.187c.895-1.55 2.549-2.505 4.339-2.505h53.76c8.559 0 15.862-5.357 18.735-12.908z" fill="#ffe07d"/></g><g><path d="m223.614 329.621 192.217-205.63c-3.291-6.566-10.084-11.074-17.929-11.074h-377.86c-7.845 0-14.651 4.502-17.942 11.068l192.23 205.637c7.922 8.474 21.363 8.474 29.284-.001z" fill="#ffc250"/></g><g><path d="m397.903 112.916h-15.413l-195.767 208.566 7.608 8.139c7.922 8.475 21.362 8.475 29.284 0l192.217-205.63c-3.292-6.567-10.085-11.075-17.929-11.075z" fill="#ebb044"/></g><g><path d="m384.364 369.27c-2.368 8.43-10.093 14.618-19.279 14.618h-38.563c-1.79 0-3.444.955-4.339 2.505l-17.706 30.667c-3.857 6.681-13.5 6.681-17.357 0l-17.706-30.667c-.895-1.55-2.549-2.505-4.339-2.505h-245.158l-18.61 19.91c2.873 7.551 10.176 12.908 18.735 12.908h227.412c1.79 0 3.444.955 4.339 2.505l35.326 61.187c3.857 6.681 13.5 6.681 17.357 0l35.326-61.187c.895-1.55 2.549-2.505 4.339-2.505h53.76c8.559 0 15.862-5.357 18.735-12.908z" fill="#ffd064"/></g></g><g><g><circle cx="434.986" cy="103.607" fill="#ecf4ff" r="77.014"/></g><g><path d="m474.37 37.425c6.874 11.525 10.833 24.99 10.833 39.384 0 42.534-34.48 77.014-77.014 77.014-14.394 0-27.859-3.96-39.384-10.833 13.437 22.531 38.042 37.63 66.181 37.63 42.534 0 77.014-34.48 77.014-77.014 0-28.139-15.099-52.743-37.63-66.181z" fill="#ddeafb"/></g><g><g><path d="m436.398 149.24c-4.151 0-7.516-3.365-7.516-7.516v-60.702h-7.066c-4.151 0-7.516-3.365-7.516-7.516s3.365-7.516 7.516-7.516h14.582c4.151 0 7.516 3.365 7.516 7.516v68.218c0 4.151-3.364 7.516-7.516 7.516z" fill="#524798"/></g></g></g></g></svg>