<svg id="Layer_1" enable-background="new 0 0 512 512" height="512" viewBox="0 0 512 512" width="512" xmlns="http://www.w3.org/2000/svg"><g><path d="m424.316 445.018c47.218-44.66 76.685-107.896 76.685-178.019 0-135.31-109.691-245.001-245.001-245.001s-245.001 109.691-245.001 245.001 109.691 245.001 245.001 245.001c10.603 0 21.049-.675 31.297-1.981z" fill="#816ae2"/><path d="m396.836 365.563c-2.15-7.901-2.908-16.116-2.24-24.277l4.001-37.685c1.953-23.645-1.651-47.335-12.118-68.626-27.045-55.013-20.84-59.005-21.681-113.604 0-11.153-9.042-20.196-20.196-20.196-11.154 0-20.196 9.042-20.196 20.196 0 222.032.413 205.739-.956 212.249v29.074c0 24.496-19.929 44.426-44.425 44.426-16.269 0-72.374 0-110.552 0 16.984 23.62 40.219 42.114 67.183 53.313.167.069.334.139.501.21 20.833 8.799 44.094 26.357 47.981 48.142l.376 1.556c54.861-6.36 104.191-30.834 141.86-67.297z" fill="#f9ba8f"/><path d="m93.463 101.881-6.151-5.699c-9.483-8.786-24.43-8.216-33.216 1.266-8.786 9.483-8.216 24.43 1.266 33.216l38.101 35.303z" fill="#f9ba8f"/><path d="m67.863 112.997c-5.817-5.39-8.264-13.096-7.271-20.439-2.373 1.215-4.585 2.829-6.496 4.89-8.786 9.483-8.216 24.43 1.266 33.216l38.101 35.303v-29.249z" fill="#fcad6d"/><g><path d="m398.676 370.388c-8.342 57.526-57.852 101.719-117.69 101.719-10.331 0-20.353-1.319-29.909-3.794 15.843 9.687 30.095 23.845 33.061 40.471l.376 1.556c54.861-6.36 104.191-30.834 141.86-67.297z" fill="#fd995b"/></g><g><path d="m289.615 408.075h-162.235c-19.185 0-34.792-15.608-34.792-34.793v-338.489c-.001-19.185 15.607-34.793 34.792-34.793h162.235c19.185 0 34.792 15.608 34.792 34.793v338.49c0 19.184-15.608 34.792-34.792 34.792z" fill="#2a428c"/></g><path d="m197.75 386.428c-12.151-12.151 0-24.055 0-24.055l-1.148-111.301c-15.528-15.528 1.148-29.787 1.148-29.787s11.667-95.889-.137-111.367c-11.803-15.479 4.261-25.927 4.261-25.927v-25.768c-21.876 0-22.482-18.726-22.482-18.726-7.546-7.545 0-14.565 0-14.565v-12.025c-6.646-4.212-5.032-9.885-3.469-12.907h-48.543c-19.185 0-34.792 15.608-34.792 34.792v338.49c0 19.185 15.608 34.793 34.792 34.793h70.37c-10.911-10.911 0-21.647 0-21.647z" fill="#142766"/><g><path d="m182.867 24.933h-3.474c-3.321 0-6.013-2.692-6.013-6.013s2.692-6.013 6.013-6.013h3.474c3.321 0 6.013 2.692 6.013 6.013s-2.693 6.013-6.013 6.013z" fill="#3c58a0"/></g><g><path d="m236.771 24.933h-33.382c-3.321 0-6.013-2.692-6.013-6.013s2.692-6.013 6.013-6.013h33.382c3.321 0 6.013 2.692 6.013 6.013s-2.692 6.013-6.013 6.013z" fill="#3c58a0"/></g><path d="m289.615 21.646h-24.383c-4.546 0-8.23 3.685-8.23 8.23 0 5.291-4.329 9.621-9.621 9.621h-77.767c-5.292 0-9.621-4.329-9.621-9.621 0-4.545-3.685-8.23-8.23-8.23h-24.383c-7.26 0-13.146 5.886-13.146 13.146v338.49c0 7.26 5.886 13.146 13.146 13.146h162.235c7.26 0 13.146-5.886 13.146-13.146 0-34.819 0-329.197 0-338.49 0-7.26-5.886-13.146-13.146-13.146z" fill="#e9efff"/><path d="m197.75 362.373-1.148-111.301c-15.528-15.528 1.148-29.787 1.148-29.787s11.667-95.889-.137-111.367c-11.803-15.479 4.261-25.927 4.261-25.927v-25.768c-21.876 0-22.482-18.726-22.482-18.726h-9.778c-5.292 0-9.621-4.329-9.621-9.621 0-4.545-3.685-8.23-8.23-8.23h-24.383c-7.26 0-13.146 5.885-13.146 13.146v338.49c0 7.26 5.886 13.146 13.146 13.146h70.37c-12.151-12.15 0-24.055 0-24.055z" fill="#bec8f7"/><path d="m127.669 225.842c-7.73 8.343-20.761 8.84-29.104 1.109l-34.497-31.964c-8.343-7.73-8.84-20.761-1.109-29.104 7.73-8.343 20.761-8.84 29.104-1.109l34.497 31.964c8.343 7.731 8.84 20.761 1.109 29.104z" fill="#f9ba8f"/><path d="m112.757 212.422-34.497-31.964c-5.77-5.346-7.781-13.226-5.92-20.338-3.478 1.004-6.741 2.915-9.381 5.764-7.731 8.343-7.234 21.374 1.109 29.104l34.497 31.964c8.343 7.73 21.373 7.234 29.104-1.109 2.384-2.573 3.98-5.594 4.81-8.766-6.707 1.935-14.228.436-19.722-4.655z" fill="#fcad6d"/><g><path d="m127.669 338.191c-7.73 8.343-20.761 8.84-29.104 1.109l-34.497-31.964c-8.343-7.73-8.84-20.761-1.109-29.104 7.73-8.343 20.761-8.84 29.104-1.109l34.497 31.964c8.343 7.73 8.84 20.761 1.109 29.104z" fill="#f9ba8f"/></g><path d="m112.757 324.77-34.497-31.964c-5.77-5.346-7.781-13.226-5.92-20.338-3.478 1.004-6.741 2.915-9.381 5.764-7.731 8.343-7.234 21.374 1.109 29.104l34.497 31.964c8.343 7.73 21.373 7.234 29.104-1.109 2.384-2.573 3.98-5.594 4.81-8.766-6.707 1.936-14.228.436-19.722-4.655z" fill="#fcad6d"/><path d="m127.669 282.017c-7.73 8.343-20.761 8.84-29.104 1.109l-34.497-31.964c-8.343-7.73-8.84-20.761-1.109-29.104 7.73-8.343 20.761-8.84 29.104-1.109l34.497 31.964c8.343 7.73 8.84 20.76 1.109 29.104z" fill="#f9ba8f"/><path d="m112.757 268.596-34.497-31.964c-5.77-5.346-7.781-13.226-5.92-20.338-3.478 1.004-6.742 2.915-9.381 5.764-7.731 8.343-7.234 21.373 1.109 29.104l34.497 31.964c8.343 7.731 21.373 7.234 29.104-1.109 2.384-2.573 3.98-5.594 4.81-8.766-6.707 1.936-14.228.436-19.722-4.655z" fill="#fcad6d"/><path d="m268.856 109.919h-120.717c-4.079 0-7.385 3.306-7.385 7.385v90.718l33.413-47.199c5.652-7.983 17.498-7.983 23.15 0l21.575 30.477c1.033 1.459 3.198 1.459 4.231 0l4.4-6.216c5.227-7.384 16.185-7.384 21.412 0l24.498 34.606c1.708-1.353 2.808-3.441 2.808-5.789v-96.597c0-4.079-3.306-7.385-7.385-7.385z" fill="#ffdd40"/><ellipse cx="227.971" cy="146.646" fill="#fcf2c8" rx="11.864" ry="11.864" transform="matrix(.23 -.973 .973 .23 32.871 334.826)"/><ellipse cx="155.241" cy="71.108" fill="#816ae2" rx="14.488" ry="14.488" transform="matrix(.707 -.707 .707 .707 -4.812 130.599)"/><ellipse cx="208.497" cy="71.108" fill="#fc90ce" rx="14.488" ry="14.488" transform="matrix(.23 -.973 .973 .23 91.389 257.69)"/><ellipse cx="261.753" cy="71.108" fill="#4fabf7" rx="14.488" ry="14.488" transform="matrix(.924 -.383 .383 .924 -7.287 105.582)"/><path d="m268.856 251.073h-120.717c-4.079 0-7.385 3.306-7.385 7.385v90.718l33.413-47.199c5.652-7.983 17.498-7.983 23.15 0l21.575 30.477c1.033 1.459 3.198 1.459 4.231 0l4.4-6.216c5.227-7.384 16.185-7.384 21.412 0l24.498 34.606c1.708-1.353 2.808-3.441 2.808-5.789v-96.596c0-4.08-3.306-7.386-7.385-7.386z" fill="#73c3f9"/><circle cx="227.971" cy="287.8" fill="#ffdd40" r="11.864"/><path d="m422.068 86.887c-13.299 16.916-25.301 41.22-15.706 67.742 18 49.753 46.667 91.99 33.333 165.538-6.05 33.372 13.803 47.361 37.296 52.687 15.379-32.042 24.009-67.938 24.009-105.855.001-71.228-30.405-135.345-78.932-180.112z" fill="#9181f2"/><path d="m184.25 119.73c0-8.089 8.736-9.585 13.363-9.812h-49.475c-4.079 0-7.385 3.306-7.385 7.385v90.718l33.413-47.199c2.504-3.537 6.225-5.5 10.083-5.903.001-16.056.001-30.779.001-35.189z" fill="#ffb332"/><path d="m140.753 258.458v90.718l33.413-47.199c2.504-3.537 6.225-5.5 10.083-5.902 0-16.083 0-30.84 0-35.256 0-7.529 7.572-9.347 12.352-9.746h-48.464c-4.077-.001-7.384 3.306-7.384 7.385z" fill="#4fabf7"/><path d="m248.935 183.984c-5.227-7.384-16.185-7.384-21.412 0l-4.4 6.216c-1.033 1.459-3.198 1.459-4.231 0l-21.575-30.477c-5.652-7.984-17.498-7.984-23.15 0l-33.413 47.199v6.978c0 4.079 3.306 7.385 7.385 7.385h120.718c1.96 0 3.737-.769 5.059-2.015z" fill="#2a428c"/><path d="m248.935 325.138c-5.227-7.384-16.185-7.384-21.412 0l-4.4 6.216c-1.033 1.459-3.198 1.459-4.231 0l-21.575-30.477c-5.652-7.984-17.498-7.984-23.15 0l-33.413 47.199v6.978c0 4.079 3.306 7.385 7.385 7.385h120.718c1.96 0 3.737-.769 5.059-2.015z" fill="#4ce088"/><path d="m184.25 205.897s0-27.812 0-52.076c-3.859.403-7.579 2.365-10.083 5.903l-33.413 47.199v6.979c0 4.079 3.306 7.385 7.385 7.385h49.611c-13.5-2.946-13.5-15.39-13.5-15.39z" fill="#1c2e7a"/><path d="m197.75 362.373c-13.5-2.945-13.5-15.388-13.5-15.388s0-27.761 0-52.01c-3.859.403-7.579 2.365-10.083 5.902l-33.413 47.199v6.978c0 4.079 3.306 7.385 7.385 7.385h49.854c-.082-.021-.157-.047-.243-.066z" fill="#30c16b"/></g></svg>